<svg width="103" height="103" viewBox="4 16 70 70" fill="none" xmlns="http://www.w3.org/2000/svg">
<path d="M23.1935 36.7273H31.8494L46.8991 73.4744H47.4531L62.5028 36.7273H71.1587V84H64.3725V49.7919H63.934L49.9922 83.9308H44.3601L30.4183 49.7688H29.9798V84H23.1935V36.7273Z" fill="url(#paint0_linear_4_185)"/>
<path d="M5.99254 73V18.4545H25.435C29.6786 18.4545 33.1942 19.2269 35.9819 20.7717C38.7695 22.3164 40.8558 24.4293 42.2408 27.1104C43.6257 29.7738 44.3182 32.7745 44.3182 36.1126C44.3182 39.4684 43.6168 42.4869 42.2141 45.168C40.8292 47.8313 38.734 49.9442 35.9286 51.5067C33.141 53.0515 29.6342 53.8239 25.4084 53.8239H12.0384V46.8459H24.6626C27.3438 46.8459 29.5188 46.3842 31.1879 45.4609C32.8569 44.5199 34.082 43.2415 34.8633 41.6257C35.6445 40.0099 36.0352 38.1722 36.0352 36.1126C36.0352 34.0529 35.6445 32.2241 34.8633 30.6261C34.082 29.0281 32.848 27.7763 31.1612 26.8707C29.4922 25.9652 27.2905 25.5124 24.5561 25.5124H14.2223V73H5.99254Z" fill="url(#paint1_linear_4_185)"/>
<defs>
<linearGradient id="paint0_linear_4_185" x1="77.7564" y1="53.1316" x2="46.4085" y2="-10.9973" gradientUnits="userSpaceOnUse">
<stop offset="0.128788" stop-color="#C423FF"/>
<stop offset="0.455552" stop-color="#694BFF"/>
<stop offset="1" stop-color="#2668FF"/>
</linearGradient>
<linearGradient id="paint1_linear_4_185" x1="51.0441" y1="87.3158" x2="-21.0991" y2="37.5872" gradientUnits="userSpaceOnUse">
<stop stop-color="#C423FF"/>
<stop offset="0.550833" stop-color="#694BFF"/>
<stop offset="1" stop-color="#2668FF"/>
</linearGradient>
</defs>
</svg>
